<?xml version="1.0" encoding="UTF-8"?>
<svg width="587px" height="782px" viewBox="0 0 587 782" version="1.1" xmlns="http://www.w3.org/2000/svg" xmlns:xlink="http://www.w3.org/1999/xlink">
    <!-- Generator: Sketch 43.1 (39012) - http://www.bohemiancoding.com/sketch -->
    <title>Group 2</title>
    <desc>Created with Sketch.</desc>
    <defs></defs>
    <g id="Page-1" stroke="none" stroke-width="1" fill="none" fill-rule="evenodd">
        <g id="Group-2" fill-rule="nonzero">
            <g id="Adobe_XD_CC_icon" transform="translate(153.000000, 381.000000)">
                <path d="M230.416667,273 L49.5833333,273 C22.1666667,273 0,250.833333 0,223.416667 L0,49.5833333 C0,22.1666667 22.1666667,0 49.5833333,0 L230.416667,0 C257.833333,0 280,22.1666667 280,49.5833333 L280,223.416667 C280,250.833333 257.833333,273 230.416667,273 Z" id="Shape" fill="#FF26BE"></path>
                <path d="M225.983333,261.333333 L54.0166667,261.333333 C30.6833333,261.333333 11.6666667,242.316667 11.6666667,218.983333 L11.6666667,54.0166667 C11.6666667,30.6833333 30.6833333,11.6666667 54.0166667,11.6666667 L225.866667,11.6666667 C249.316667,11.6666667 268.216667,30.6833333 268.216667,54.0166667 L268.216667,218.866667 C268.333333,242.316667 249.316667,261.333333 225.983333,261.333333 Z" id="Shape" fill="#2E001F"></path>
                <path d="M110.716667,127.75 L143.383333,190.516667 C143.966667,191.45 143.616667,192.383333 142.683333,192.383333 L122.383333,192.383333 C121.1,192.383333 120.516667,192.033333 119.933333,190.866667 C112.466667,175.466667 104.883333,160.066667 97.0666667,143.5 L96.8333333,143.5 C89.8333333,159.133333 82.1333333,175.583333 74.6666667,190.983333 C74.0833333,191.916667 73.5,192.266667 72.5666667,192.266667 L53.3166667,192.266667 C52.15,192.266667 52.0333333,191.333333 52.6166667,190.633333 L84.5833333,129.733333 L53.6666667,68.1333333 C52.9666667,67.2 53.6666667,66.5 54.3666667,66.5 L74.4333333,66.5 C75.6,66.5 76.0666667,66.7333333 76.5333333,67.7833333 C83.8833333,83.1833333 91.35,99.05 98.35,114.566667 L98.5833333,114.566667 C105.35,99.1666667 112.816667,83.1833333 120.05,67.9 C120.633333,66.9666667 120.983333,66.3833333 122.15,66.3833333 L140.933333,66.3833333 C141.866667,66.3833333 142.216667,67.0833333 141.633333,68.0166667 L110.716667,127.75 Z M149.1,146.766667 C149.1,119.583333 167.183333,98.35 195.883333,98.35 C198.333333,98.35 199.616667,98.35 201.95,98.5833333 L201.95,67.6666667 C201.95,66.9666667 202.533333,66.5 203.116667,66.5 L221.55,66.5 C222.483333,66.5 222.716667,66.85 222.716667,67.4333333 L222.716667,174.533333 C222.716667,177.683333 222.716667,181.65 223.3,185.966667 C223.3,186.666667 223.066667,186.9 222.366667,187.25 C212.566667,191.916667 202.3,194.016667 192.5,194.016667 C167.183333,194.133333 149.1,178.5 149.1,146.766667 Z M201.95,116.9 C200.316667,116.2 197.983333,115.733333 195.183333,115.733333 C180.483333,115.733333 170.216667,127.05 170.216667,145.833333 C170.216667,167.3 180.716667,175.933333 193.9,175.933333 C196.7,175.933333 199.733333,175.583333 201.95,174.65 L201.95,116.9 Z" id="Shape" fill="#FFD9F2"></path>
            </g>
            <g id="file-regular-copy" fill="#000000">
                <path d="M564.584211,149.952632 L436.526316,21.8947368 C422.789474,8.15789474 404.168421,0.373684211 384.784211,0.373684211 L73.2631579,0.373684211 C32.8157895,0.526315789 0,33.3421053 0,73.7894737 L0,708.736842 C0,749.184211 32.8157895,782 73.2631579,782 L512.842105,782 C553.289474,782 586.105263,749.184211 586.105263,708.736842 L586.105263,201.847368 C586.105263,182.463158 578.321053,163.689474 564.584211,149.952632 Z M506.889474,195.894737 L390.736842,195.894737 L390.736842,79.7421053 L506.889474,195.894737 Z M73.2631579,708.736842 L73.2631579,73.7894737 L317.473684,73.7894737 L317.473684,232.526316 C317.473684,252.826316 333.805263,269.157895 354.105263,269.157895 L512.842105,269.157895 L512.842105,708.736842 L73.2631579,708.736842 Z" id="Shape"></path>
            </g>
        </g>
    </g>
</svg>