<?xml version="1.0" encoding="UTF-8"?>
<svg width="587px" height="782px" viewBox="0 0 587 782" version="1.1" xmlns="http://www.w3.org/2000/svg" xmlns:xlink="http://www.w3.org/1999/xlink">
    <!-- Generator: Sketch 43.1 (39012) - http://www.bohemiancoding.com/sketch -->
    <title>Group 2</title>
    <desc>Created with Sketch.</desc>
    <defs></defs>
    <g id="Page-1" stroke="none" stroke-width="1" fill="none" fill-rule="evenodd">
        <g id="Group-2" fill-rule="nonzero">
            <path d="M383.416667,654 L202.583333,654 C175.166667,654 153,631.833333 153,604.416667 L153,430.583333 C153,403.166667 175.166667,381 202.583333,381 L383.416667,381 C410.833333,381 433,403.166667 433,430.583333 L433,604.416667 C433,631.833333 410.833333,654 383.416667,654 Z" id="Shape" fill="#FF26BE"></path>
            <path d="M378.983333,642.333333 L207.016667,642.333333 C183.683333,642.333333 164.666667,623.316667 164.666667,599.983333 L164.666667,435.016667 C164.666667,411.683333 183.683333,392.666667 207.016667,392.666667 L378.866667,392.666667 C402.316667,392.666667 421.216667,411.683333 421.216667,435.016667 L421.216667,599.866667 C421.333333,623.316667 402.316667,642.333333 378.983333,642.333333 Z" id="Shape" fill="#2E001F"></path>
            <path d="M263.716667,508.75 L296.383333,571.516667 C296.966667,572.45 296.616667,573.383333 295.683333,573.383333 L275.383333,573.383333 C274.1,573.383333 273.516667,573.033333 272.933333,571.866667 C265.466667,556.466667 257.883333,541.066667 250.066667,524.5 L249.833333,524.5 C242.833333,540.133333 235.133333,556.583333 227.666667,571.983333 C227.083333,572.916667 226.5,573.266667 225.566667,573.266667 L206.316667,573.266667 C205.15,573.266667 205.033333,572.333333 205.616667,571.633333 L237.583333,510.733333 L206.666667,449.133333 C205.966667,448.2 206.666667,447.5 207.366667,447.5 L227.433333,447.5 C228.6,447.5 229.066667,447.733333 229.533333,448.783333 C236.883333,464.183333 244.35,480.05 251.35,495.566667 L251.583333,495.566667 C258.35,480.166667 265.816667,464.183333 273.05,448.9 C273.633333,447.966667 273.983333,447.383333 275.15,447.383333 L293.933333,447.383333 C294.866667,447.383333 295.216667,448.083333 294.633333,449.016667 L263.716667,508.75 Z M302.1,527.766667 C302.1,500.583333 320.183333,479.35 348.883333,479.35 C351.333333,479.35 352.616667,479.35 354.95,479.583333 L354.95,448.666667 C354.95,447.966667 355.533333,447.5 356.116667,447.5 L374.55,447.5 C375.483333,447.5 375.716667,447.85 375.716667,448.433333 L375.716667,555.533333 C375.716667,558.683333 375.716667,562.65 376.3,566.966667 C376.3,567.666667 376.066667,567.9 375.366667,568.25 C365.566667,572.916667 355.3,575.016667 345.5,575.016667 C320.183333,575.133333 302.1,559.5 302.1,527.766667 Z M354.95,497.9 C353.316667,497.2 350.983333,496.733333 348.183333,496.733333 C333.483333,496.733333 323.216667,508.05 323.216667,526.833333 C323.216667,548.3 333.716667,556.933333 346.9,556.933333 C349.7,556.933333 352.733333,556.583333 354.95,555.65 L354.95,497.9 Z" id="Shape" fill="#FFD9F2"></path>
            <path d="M564.584211,149.952632 L436.526316,21.8947368 C422.789474,8.15789474 404.168421,0.373684211 384.784211,0.373684211 L73.2631579,0.373684211 C32.8157895,0.526315789 0,33.3421053 0,73.7894737 L0,708.736842 C0,749.184211 32.8157895,782 73.2631579,782 L512.842105,782 C553.289474,782 586.105263,749.184211 586.105263,708.736842 L586.105263,201.847368 C586.105263,182.463158 578.321053,163.689474 564.584211,149.952632 Z M506.889474,195.894737 L390.736842,195.894737 L390.736842,79.7421053 L506.889474,195.894737 Z M73.2631579,708.736842 L73.2631579,73.7894737 L317.473684,73.7894737 L317.473684,232.526316 C317.473684,252.826316 333.805263,269.157895 354.105263,269.157895 L512.842105,269.157895 L512.842105,708.736842 L73.2631579,708.736842 Z" id="Shape" fill="#C7C7CD"></path>
        </g>
    </g>
</svg>